<svg width="512" height="512" viewBox="0 0 512 512" fill="none" xmlns="http://www.w3.org/2000/svg">
<g clip-path="url(#clip0_1_28)">
<path fill-rule="evenodd" clip-rule="evenodd" d="M249.813 100.267C249.813 88.5333 259.413 78.9333 271.147 78.9333C282.88 78.9333 292.48 88.5333 292.48 100.267V210.56L331.307 249.387C333.653 242.773 335.147 235.733 335.147 228.267V100.267C335.147 64.8533 306.56 36.2667 271.147 36.2667C235.733 36.2667 207.147 64.8533 207.147 100.267V125.227L249.813 167.893V100.267ZM75.0933 53.5467L44.8 83.6267L293.333 332.16C286.293 333.867 278.827 334.933 271.147 334.933C212.267 334.933 164.48 287.147 164.48 228.267H121.813C121.813 303.573 177.493 365.44 249.813 375.893V441.6H292.48V375.893C304.64 374.187 316.373 370.773 327.467 366.08L437.12 475.733L467.2 445.653L75.0933 53.5467ZM420.48 228.267H377.813C377.813 247.68 372.267 265.6 363.093 281.173L394.24 312.32C410.667 288.427 420.48 259.627 420.48 228.267Z" fill="#EA4335"/>
</g>
<defs>
<clipPath id="clip0_1_28">
<rect width="512" height="512" fill="white"/>
</clipPath>
</defs>
</svg>
