<svg width="512" height="512" viewBox="0 0 512 512" fill="none" xmlns="http://www.w3.org/2000/svg">
<g clip-path="url(#clip0_1_2)">
<path fill-rule="evenodd" clip-rule="evenodd" d="M256 309.333C291.413 309.333 320 280.747 320 245.333V117.333C320 81.92 291.413 53.3333 256 53.3333C220.587 53.3333 192 81.92 192 117.333V245.333C192 280.747 220.587 309.333 256 309.333ZM362.667 245.333C362.667 304.213 314.88 352 256 352C197.12 352 149.333 304.213 149.333 245.333H106.667C106.667 320.64 162.347 382.507 234.667 392.96V458.667H277.333V392.96C349.653 382.507 405.333 320.64 405.333 245.333L362.667 245.333Z" fill="#00DCB0"/>
</g>
<defs>
<clipPath id="clip0_1_2">
<rect width="512" height="512" fill="white"/>
</clipPath>
</defs>
</svg>
